<svg width="64" height="64" viewBox="0 0 64 64" fill="none" xmlns="http://www.w3.org/2000/svg">
  <defs>
    <linearGradient id="bg" x1="0" y1="0" x2="64" y2="64" gradientUnits="userSpaceOnUse">
      <stop stop-color="#22C55E"/>
      <stop offset="1" stop-color="#16A34A"/>
    </linearGradient>
  </defs>
  <rect width="64" height="64" rx="16" fill="url(#bg)"/>
  <path d="M40 21c-2.6 0-4.9 1-6.6 2.6C31.7 22 29.4 21 26.8 21 21.4 21 17 25.6 17 31.6 17 39.3 24.4 46 32 49.5 39.6 46 47 39.3 47 31.6 47 25.6 43.4 21 40 21Z" fill="#FFFFFF"/>
  <path d="M33.4 21.2c.4-3 2.6-5.4 5.6-6.2.5 2.9-1.4 6-5.6 6.2Z" fill="#F59E0B"/>
</svg>
